<?xml version="1.0" encoding="UTF-8"?>
<svg xmlns="http://www.w3.org/2000/svg" xmlns:xlink="http://www.w3.org/1999/xlink" width="25pt" height="25pt" viewBox="0 0 25 25" version="1.1">
<g id="surface1">
<path style=" stroke:none;fill-rule:nonzero;fill:rgb(100%,100%,100%);fill-opacity:1;" d="M 23.175781 24.351562 L 1.824219 24.351562 C 1.875 19.898438 1.699219 17.550781 4.574219 16.5 C 7.199219 15.5 8.75 14.476562 8.75 14.476562 L 10.773438 20.851562 L 11.050781 21.726562 L 11.949219 19.175781 C 9.875 16.273438 12.101562 16.148438 12.5 16.148438 C 12.875 16.148438 15.125 16.300781 13.050781 19.175781 L 13.949219 21.726562 L 14.226562 20.851562 L 16.25 14.476562 C 16.25 14.476562 17.824219 15.5 20.425781 16.5 C 23.300781 17.523438 23.125 19.898438 23.175781 24.351562 M 9.199219 7.550781 C 9.199219 5.773438 10.648438 4.324219 12.425781 4.324219 C 14.199219 4.324219 15.648438 5.773438 15.648438 7.550781 C 15.648438 9.324219 14.199219 10.773438 12.425781 10.773438 C 10.648438 10.773438 9.199219 9.351562 9.199219 7.550781 M 10.5 7.675781 L 11.199219 8.375 L 11.925781 9.125 L 12.675781 8.398438 L 14.375 6.726562 L 13.648438 5.976562 L 11.949219 7.648438 L 11.25 6.949219 L 10.5 7.675781 M 10.300781 1.125 C 10.574219 0.648438 11.199219 0.5 11.648438 0.824219 L 11.949219 1.023438 C 12.273438 1.25 12.699219 1.25 13.023438 1.023438 L 13.324219 0.824219 C 13.773438 0.5 14.398438 0.648438 14.675781 1.125 L 14.851562 1.449219 C 15 1.800781 15.375 2 15.773438 1.925781 L 16.125 1.875 C 16.675781 1.773438 17.175781 2.175781 17.199219 2.726562 L 17.226562 3.074219 C 17.25 3.476562 17.5 3.800781 17.898438 3.925781 L 18.25 4.023438 C 18.773438 4.175781 19.050781 4.75 18.851562 5.273438 L 18.699219 5.601562 C 18.550781 5.949219 18.648438 6.375 18.925781 6.648438 L 19.199219 6.898438 C 19.601562 7.273438 19.601562 7.898438 19.199219 8.273438 L 18.925781 8.523438 C 18.625 8.773438 18.523438 9.199219 18.675781 9.574219 L 18.824219 9.898438 C 19.050781 10.398438 18.75 11 18.226562 11.125 L 17.875 11.226562 C 17.5 11.324219 17.226562 11.675781 17.199219 12.050781 L 17.175781 12.398438 C 17.148438 12.949219 16.648438 13.351562 16.101562 13.25 L 15.75 13.199219 C 15.351562 13.125 14.976562 13.324219 14.773438 13.648438 L 14.601562 13.976562 C 14.324219 14.449219 13.699219 14.601562 13.25 14.273438 L 12.949219 14.074219 C 12.625 13.851562 12.199219 13.851562 11.875 14.074219 L 11.574219 14.273438 C 11.125 14.601562 10.5 14.449219 10.226562 13.976562 L 10.050781 13.648438 C 9.851562 13.300781 9.476562 13.125 9.074219 13.175781 L 8.726562 13.226562 C 8.175781 13.324219 7.675781 12.925781 7.648438 12.375 L 7.625 12.023438 C 7.601562 11.625 7.351562 11.300781 6.949219 11.175781 L 6.601562 11.074219 C 6.074219 10.925781 5.800781 10.351562 6 9.824219 L 6.148438 9.5 C 6.300781 9.148438 6.199219 8.726562 5.925781 8.449219 L 5.648438 8.199219 C 5.25 7.824219 5.25 7.199219 5.648438 6.824219 L 5.925781 6.574219 C 6.226562 6.324219 6.324219 5.898438 6.175781 5.523438 L 6.023438 5.199219 C 5.800781 4.699219 6.101562 4.101562 6.625 3.976562 L 6.976562 3.875 C 7.351562 3.773438 7.625 3.425781 7.648438 3.050781 L 7.675781 2.699219 C 7.75 2.148438 8.25 1.75 8.800781 1.851562 L 9.148438 1.925781 C 9.550781 2 9.925781 1.800781 10.125 1.476562 L 10.300781 1.125 M 7.976562 7.550781 C 7.976562 10.023438 9.976562 12.023438 12.449219 12.023438 C 14.925781 12.023438 16.925781 10.023438 16.925781 7.550781 C 16.925781 5.074219 14.925781 3.074219 12.449219 3.074219 C 9.976562 3.074219 7.976562 5.074219 7.976562 7.550781 Z M 7.976562 7.550781 "/>
</g>
</svg>
