<?xml version="1.0" encoding="UTF-8"?>
<svg xmlns="http://www.w3.org/2000/svg" xmlns:xlink="http://www.w3.org/1999/xlink" width="25pt" height="25pt" viewBox="0 0 25 25" version="1.1">
<g id="surface1">
<path style=" stroke:none;fill-rule:nonzero;fill:rgb(100%,100%,100%);fill-opacity:1;" d="M 7.210938 12.554688 C 7.210938 15.554688 9.644531 17.988281 12.644531 17.988281 C 15.644531 17.988281 18.074219 15.554688 18.074219 12.554688 C 18.074219 9.554688 15.644531 7.121094 12.644531 7.121094 C 9.644531 7.121094 7.210938 9.554688 7.210938 12.554688 M 15.085938 21.023438 L 15.085938 24.480469 C 15.085938 24.765625 14.851562 25 14.5625 25 L 10.742188 25 C 10.457031 25 10.222656 24.765625 10.222656 24.480469 L 10.222656 21.035156 C 9.558594 20.847656 8.925781 20.582031 8.335938 20.25 L 5.824219 22.761719 C 5.625 22.964844 5.292969 22.964844 5.089844 22.761719 L 2.390625 20.058594 C 2.1875 19.855469 2.1875 19.527344 2.390625 19.324219 L 4.914062 16.796875 C 4.601562 16.230469 4.351562 15.621094 4.167969 14.984375 L 0.511719 14.984375 C 0.226562 14.984375 -0.0078125 14.753906 -0.0078125 14.464844 L -0.0078125 10.644531 C -0.0078125 10.359375 0.226562 10.125 0.511719 10.125 L 4.175781 10.125 C 4.351562 9.511719 4.589844 8.925781 4.890625 8.378906 L 2.242188 5.730469 C 2.039062 5.527344 2.039062 5.195312 2.242188 4.992188 L 4.941406 2.292969 C 5.144531 2.089844 5.476562 2.089844 5.675781 2.292969 L 8.289062 4.90625 C 8.894531 4.5625 9.542969 4.289062 10.222656 4.097656 L 10.222656 0.519531 C 10.222656 0.234375 10.457031 0 10.742188 0 L 14.5625 0 C 14.851562 0 15.082031 0.234375 15.082031 0.519531 L 15.082031 4.105469 C 15.710938 4.289062 16.308594 4.535156 16.867188 4.84375 L 19.339844 2.375 C 19.542969 2.171875 19.871094 2.171875 20.074219 2.375 L 22.773438 5.074219 C 22.976562 5.277344 22.976562 5.609375 22.773438 5.8125 L 20.320312 8.265625 C 20.648438 8.847656 20.910156 9.472656 21.097656 10.125 L 24.480469 10.125 C 24.765625 10.125 25 10.359375 25 10.644531 L 25 14.464844 C 25 14.753906 24.765625 14.984375 24.480469 14.984375 L 21.101562 14.984375 C 20.910156 15.664062 20.636719 16.308594 20.292969 16.910156 L 22.628906 19.242188 C 22.832031 19.445312 22.832031 19.773438 22.628906 19.976562 L 19.925781 22.679688 C 19.722656 22.882812 19.394531 22.882812 19.191406 22.679688 L 16.824219 20.308594 C 16.277344 20.609375 15.691406 20.847656 15.085938 21.023438 M 9.300781 12.566406 C 9.300781 10.703125 10.808594 9.195312 12.671875 9.195312 C 14.53125 9.195312 16.039062 10.703125 16.039062 12.566406 C 16.039062 14.425781 14.53125 15.933594 12.671875 15.933594 C 10.808594 15.933594 9.300781 14.425781 9.300781 12.566406 Z M 9.300781 12.566406 "/>
</g>
</svg>
